<?xml version="1.0" encoding="UTF-8" standalone="no"?>
<svg
   xmlns:dc="http://purl.org/dc/elements/1.1/"
   xmlns:cc="http://creativecommons.org/ns#"
   xmlns:rdf="http://www.w3.org/1999/02/22-rdf-syntax-ns#"
   xmlns:svg="http://www.w3.org/2000/svg"
   xmlns="http://www.w3.org/2000/svg"
   id="svg3470"
   version="1.1"
   width="511.41656"
   height="128"
   viewBox="0 0 511.41656 128">
  <metadata
     id="metadata3476">
    <rdf:RDF>
      <cc:Work
         rdf:about="">
        <dc:format>image/svg+xml</dc:format>
        <dc:type
           rdf:resource="http://purl.org/dc/dcmitype/StillImage" />
        <dc:title></dc:title>
      </cc:Work>
    </rdf:RDF>
  </metadata>
  <defs
     id="defs3474">
    <filter
       style="color-interpolation-filters:sRGB"
       id="filter5448"
       x="-0.040965974"
       width="1.0819319"
       y="-0.057950307"
       height="1.1159006">
      <feGaussianBlur
         stdDeviation="1.7069149"
         id="feGaussianBlur5450" />
    </filter>
    <filter
       style="color-interpolation-filters:sRGB"
       id="filter4536"
       x="-0.021683345"
       width="1.0433667"
       y="-0.10596351"
       height="1.2119271">
      <feGaussianBlur
         stdDeviation="1.9179395"
         id="feGaussianBlur4538" />
    </filter>
  </defs>
  <g
     transform="matrix(1.2799998,0,0,1.2799998,5.2436202,3.201562e-5)"
     style="display:inline"
     id="layer3">
    <path
       style="opacity:0.2;fill:#000000;fill-opacity:1;fill-rule:nonzero;stroke:none;stroke-width:8;stroke-linecap:butt;stroke-linejoin:miter;stroke-miterlimit:4;stroke-dasharray:none;stroke-dashoffset:0;stroke-opacity:1;filter:url(#filter5448)"
       d="M 85.320334,16.65436 1.7675944,39.04108 A 50.000008,50 0 0 0 1.7129727e-5,52.000065 50.000008,50 0 0 0 14.679707,87.345765 L 98.232414,64.958926 A 50.000008,50 0 0 0 99.999983,51.999938 50.000008,50 0 0 0 85.320294,16.654234 Z"
       id="path5446" />
  </g>
  <g
     transform="matrix(1.2799998,0,0,1.2799998,5.2436202,-35.839962)"
     id="layer2">
    <path
       id="rect3378"
       d="M 85.320468,42.654276 1.7677331,65.040995 A 50.000008,50 0 0 0 1.550442e-4,77.99998 50.000008,50 0 0 0 14.679844,113.34568 L 98.232545,90.958841 A 50.000008,50 0 0 0 100.00012,77.999853 50.000008,50 0 0 0 85.320434,42.65415 Z"
       style="opacity:1;fill:#eceff1;fill-opacity:1;fill-rule:nonzero;stroke:none;stroke-width:8;stroke-linecap:butt;stroke-linejoin:miter;stroke-miterlimit:4;stroke-dasharray:none;stroke-dashoffset:0;stroke-opacity:1" />
    <path
       id="rect3413"
       d="m 58.018061,49.967661 6.470981,24.150032 4.82963,-1.294095 -6.470477,-24.148146 -4.830146,1.292164 z M 1.7684792,65.041713 C 1.5617593,65.786468 1.3760845,66.536352 1.2041359,67.289768 A 50.000008,50 0 0 0 0.92995902,68.734164 L 6.5334927,89.646836 11.362616,88.350855 4.8926455,64.204595 1.7684792,65.041713 Z M 9.7222747,62.9105 13.604055,77.397501 18.43419,76.105292 14.550017,61.61691 9.7222747,62.9105 Z m 9.6592583,-2.58819 3.882286,14.488887 4.829629,-1.294095 -3.882286,-14.488888 -4.829629,1.294096 z m 9.659258,-2.588191 6.470477,24.148146 4.829629,-1.294095 -6.470477,-24.148146 -4.829629,1.294095 z m 9.659259,-2.58819 3.882285,14.488887 4.82963,-1.294095 -3.882286,-14.488888 -4.829629,1.294096 z m 9.659258,-2.588191 3.882286,14.488887 4.829629,-1.294095 -3.882286,-14.488887 -4.829629,1.294095 z m 19.318516,-5.176381 3.882286,14.488887 4.829629,-1.294095 -3.882285,-14.488887 -4.82963,1.294095 z m 9.661145,-2.588696 3.8804,14.489393 4.829629,-1.294095 -3.882286,-14.488888 -4.827743,1.29359 z m 10.522798,0.642129 5.60505,20.918332 4.567396,-1.22383 C 97.890945,64.25947 97.73336,63.452438 97.566525,62.674506 A 50.000008,50 0 0 0 88.37946,46.046245 C 88.200419,45.837344 88.047092,45.649739 87.861767,45.43479 Z"
       style="opacity:1;fill:#37474f;fill-opacity:1;fill-rule:nonzero;stroke:none;stroke-width:8;stroke-linecap:butt;stroke-linejoin:miter;stroke-miterlimit:4;stroke-dasharray:none;stroke-dashoffset:0;stroke-opacity:1" />
  </g>
  <g
     transform="matrix(0.7849977,0,0,0.75863347,37.184609,16.002601)"
     id="g4225">
    <g
       transform="matrix(1.9841196,0,0,2.11091,-169.94948,-69.431511)"
       id="text4499"
       style="font-style:normal;font-variant:normal;font-weight:normal;font-stretch:normal;font-size:52.71844482px;line-height:125%;font-family:Track;-inkscape-font-specification:'Track, Normal';text-align:start;letter-spacing:0px;word-spacing:0px;writing-mode:lr-tb;text-anchor:start;opacity:0.2;fill:#000000;fill-opacity:1;stroke:none;stroke-width:1px;stroke-linecap:butt;stroke-linejoin:miter;stroke-opacity:1;filter:url(#filter4536)">
      <path
         id="path4506"
         style="fill:#000000"
         d="m 175.03604,85.440094 q -0.73806,0 -1.21252,-0.474466 -0.47447,-0.474466 -0.47447,-1.212524 l -0.10544,-38.800776 q 0,-0.738058 0.52719,-1.212524 0.52718,-0.474466 1.26524,-0.474466 l 25.46301,0 q 1.31796,0 1.52883,0.632621 0.21088,0.632622 0.21088,1.423398 l 0,2.899515 q 0,1.423398 -0.36903,1.739709 -0.36903,0.31631 -1.73971,0.31631 l -19.76942,0 0,9.331165 17.55525,0 q 0.73805,0 1.21252,0.527184 0.47447,0.474466 0.47447,1.212525 l 0,3.584854 q 0,0.738058 -0.47447,1.265243 -0.47447,0.474466 -1.21252,0.474466 l -17.55525,0 0,11.756213 20.45476,0 q 1.37068,0 1.73971,0.316311 0.36903,0.31631 0.36903,1.739708 l 0,2.846796 q 0,0.790777 -0.21088,1.476117 -0.21087,0.632621 -1.52883,0.632621 l -26.14835,0 z" />
      <path
         id="path4508"
         style="font-size:40px;fill:#000000"
         d="m 232.19429,84.160094 q 0,1.28 -1.28,1.28 l -2.88,0 q -0.64,0 -0.88,-0.28 -0.2,-0.32 -0.4,-0.76 l -3.64,-10.52 -9.84,4.36 -2.2,6.16 q -0.2,0.48 -0.4,0.76 -0.2,0.28 -0.92,0.28 l -2.76,0 q -0.48,0 -0.92,-0.36 -0.4,-0.36 -0.4,-0.92 0,-0.04 0.4,-1.2 0.4,-1.2 1.04,-3.12 0.68,-1.96 1.52,-4.44 0.84,-2.52 1.72,-5.16 0.92,-2.68 1.8,-5.28 0.92,-2.64 1.68,-4.8 0.76,-2.16 1.28,-3.68 0.56,-1.52 0.76,-2 0.2,-0.44 0.44,-0.72 0.24,-0.32 0.84,-0.32 l 3.52,0 q 0.6,0 0.8,0.32 0.24,0.32 0.44,0.72 l 10.24,29.2 q 0.04,0.2 0.04,0.28 0,0.08 0,0.2 z m -11,-15.6 q -0.36,-0.96 -0.6,-1.56 -0.24,-0.64 -0.32,-0.96 -0.08,-0.32 -0.2,-0.6 -0.12,-0.32 -0.2,-0.64 -0.2,-0.6 -0.44,-1.28 -0.2,-0.68 -0.52,-1.6 l -3.24,9.08 5.52,-2.44 z" />
      <path
         id="path4510"
         style="font-size:40px;fill:#000000"
         d="m 257.69241,75.520094 q 0,1.16 -0.24,2.32 -0.2,1.16 -0.6,2.24 -0.4,1.04 -0.96,1.96 -0.56,0.88 -1.24,1.48 -1.36,1.2 -3.24,1.76 -1.84,0.52 -4,0.52 l -3.04,0 q -2.64,0 -4.84,-1.2 -2.2,-1.24 -3.48,-3.32 -0.88,-1.28 -1.12,-2.6 -0.24,-1.24 -0.28,-1.88 0,-0.68 0,-1.36 l 0,0.08 q 0,-0.6 0.16,-1.08 0.2,-0.48 1.12,-0.48 l 2.72,0 q 0.96,0 1.2,0.96 0.12,0.4 0.12,0.6 0,0.2 0,0.68 0,0.16 0,0.44 0.04,0.24 0.08,0.64 0.32,1.48 1.52,2.44 1.24,0.96 2.8,0.96 l 3.04,0 q 1.8,0 3.16,-0.92 1.4,-0.92 1.68,-2.52 0.04,-0.2 0.04,-0.4 0.04,-0.2 0.04,-0.4 0,-0.2 0,-0.48 0.04,-0.32 -0.04,-0.64 -0.04,-0.32 -0.2,-0.64 -0.12,-0.32 -0.36,-0.56 -0.84,-0.72 -2.56,-1.12 -1.72,-0.4 -3.88,-0.92 -1.92,-0.44 -3.84,-1 -1.88,-0.56 -3.4,-1.44 -1.52,-0.92 -2.48,-2.28 -0.92,-1.36 -0.92,-3.36 l 0,-0.56 q 0,-0.64 0,-1.28 0.04,-0.68 0.24,-1.48 l -0.04,0.04 q 0.32,-1.68 1.2,-3.08 0.88,-1.4 2.16,-2.4 1.28,-1.04 2.84,-1.6 1.6,-0.6 3.32,-0.6 l 3.04,0 q 1.8,0 3.44,0.64 1.68,0.6 3.04,1.68 1.36,1.08 2.12,3.04 0.76,1.92 0.68,4.24 -0.04,0.6 -0.2,1.08 -0.16,0.48 -1.08,0.48 l -2.64,0 q -0.56,0 -0.92,-0.4 -0.32,-0.4 -0.36,-0.88 -0.08,-2.56 -1.12,-3.6 -1.04,-1.08 -2.96,-1.08 l -3.04,0 q -0.76,0 -1.48,0.28 -0.72,0.24 -1.32,0.72 -0.56,0.48 -1,1.12 -0.4,0.64 -0.56,1.4 l 0,-0.04 q -0.08,0.52 -0.12,1.32 0,0.8 0.76,1.56 0.8,0.8 1.72,1.04 l 4.6,1.28 q 1.8,0.52 3.08,0.88 1.28,0.32 2.04,0.6 0.8,0.28 1.48,0.64 0.72,0.32 1.32,0.72 1.24,0.84 2,2.28 0.8,1.44 0.8,3.48 z" />
      <path
         id="path4512"
         style="font-size:40px;fill:#000000"
         d="m 280.89117,53.960094 q 0.4,-0.52 1.08,-0.52 l 3.6,0 q 1.28,0 1.28,1.28 0,0.32 -0.16,0.6 -0.16,0.28 -0.32,0.48 0,0.04 -0.04,0.04 0,0 0,0.04 l -0.04,0.04 -10.28,14.68 0,13.28 q 0,0.6 -0.16,1.08 -0.16,0.48 -1.16,0.48 l -2.72,0 q -0.92,0 -1.12,-0.48 -0.16,-0.48 -0.16,-1.08 l 0,-13.36 -10.56,-15.08 q -0.12,-0.2 -0.16,-0.36 0,-0.16 0,-0.4 0,-1.24 1.24,-1.24 l 3.56,0 q 0.72,0 1.16,0.6 l 7.48,11.08 q 3.12,-4.84 5,-7.6 1.88,-2.8 2.56,-3.64 l -0.08,0.08 z" />
      <path
         id="path4514"
         style="fill:#000000"
         d="m 297.42561,83.753104 q 0,0.632621 -0.52719,1.159806 -0.47446,0.527184 -1.21252,0.527184 l -3.58486,0 q -0.73805,0 -1.1598,-0.527184 -0.42175,-0.527185 -0.42175,-1.159806 l -0.10544,-38.800776 q 0,-0.632621 0.47447,-1.159805 0.47447,-0.527185 1.21252,-0.527185 l 3.58486,0 q 0.73806,0 1.21252,0.527185 0.52719,0.527184 0.52719,1.159805 l 0,38.800776 z" />
      <path
         id="path4516"
         style="fill:#000000"
         d="m 342.12344,43.265338 q 0.36903,0 0.84349,0.05272 0.52719,0 0.94893,0.210873 0.47447,0.158156 0.79078,0.632622 0.31631,0.474466 0.31631,1.317961 l 0,38.431746 q 0,1.159806 -0.5799,1.37068 -0.52719,0.158155 -1.26525,0.158155 l -3.11038,0 q -1.37068,0 -1.73971,-0.369029 -0.36903,-0.369029 -0.36903,-1.739709 l 0,-27.677183 q -2.74136,3.479417 -5.43,6.853397 -2.63592,3.373981 -5.48272,6.747961 l 0.0527,-0.105436 q -0.36903,0.579902 -0.68534,0.685339 -0.31631,0.105437 -0.89621,0.105437 l -2.05602,0 q -0.73806,0 -1.00165,-0.158155 -0.2636,-0.158155 -0.68534,-0.68534 l -10.80728,-13.443203 0,27.677183 q 0,1.37068 -0.36903,1.739709 -0.36903,0.369029 -1.73971,0.369029 l -3.11039,0 q -0.73806,0.05272 -1.26524,-0.158155 -0.47447,-0.210874 -0.47447,-1.265243 l -0.10544,-38.589902 q 0,-0.790776 0.31631,-1.212524 0.36903,-0.474466 0.8435,-0.68534 0.52718,-0.210873 1.05437,-0.210873 0.52718,-0.05272 0.84349,-0.05272 l 1.89787,0 q 0.73806,0 1.21252,0.158155 0.52719,0.158156 1.00165,0.790777 l 13.44321,16.869902 13.49592,-17.028057 q 0.63262,-0.790777 2.05602,-0.790777 l 2.05602,0 z" />
      <path
         id="path4518"
         style="fill:#000000"
         d="m 368.44806,42.579998 q 3.21583,0 6.00991,1.054369 2.84679,1.054369 5.06097,2.952233 2.21417,1.897864 3.74301,4.533786 1.52883,2.583204 2.16145,5.640874 0,0.05272 -0.0527,0.263592 0,0.210874 0,0.263592 -0.15815,0.527185 -0.52718,1.054369 -0.36903,0.474466 -1.10709,0.474466 l -3.53213,0 q -0.68534,0 -1.05437,-0.31631 -0.31631,-0.316311 -0.57991,-0.843495 -0.42174,-1.212525 -0.79077,-2.214175 -0.36903,-1.001651 -1.05437,-1.897864 -1.4234,-1.950583 -3.58486,-3.004951 -2.16145,-1.107088 -4.69194,-1.107088 -2.10874,0 -4.0066,0.843495 -1.84514,0.790777 -3.26854,2.214175 -1.37068,1.37068 -2.21418,3.268544 -0.79077,1.897864 -0.79077,4.006601 l 0,9.17301 q 0,2.161456 0.79077,4.05932 0.8435,1.845146 2.21418,3.268544 1.4234,1.370679 3.26854,2.214174 1.89786,0.790777 4.0066,0.790777 2.53049,0 4.69194,-1.107087 2.16146,-1.107088 3.6903,-3.110389 0.79077,-1.054369 1.1598,-2.108737 0.42175,-1.107088 0.73806,-2.425049 l -0.0527,0.105437 q 0.21087,-1.423398 1.63427,-1.423398 l 3.53214,0 q 0.73806,0 1.21252,0.527184 0.47447,0.527185 0.47447,1.159806 0,0.790777 -0.21087,1.68699 -0.21088,0.843496 -0.47447,1.581554 -0.89621,2.530485 -2.5832,4.691941 -1.63428,2.161457 -3.84845,3.795728 -2.16146,1.581554 -4.74466,2.477767 -2.53049,0.896214 -5.21913,0.896214 -3.53213,0 -6.64252,-1.317961 -3.11039,-1.37068 -5.48272,-3.690291 -2.31961,-2.319612 -3.69029,-5.43 -1.31796,-3.110388 -1.31796,-6.642524 l 0,-9.17301 q 0,-3.532135 1.31796,-6.642524 1.37068,-3.163106 3.69029,-5.482718 2.37233,-2.319612 5.48272,-3.690291 3.11039,-1.37068 6.64252,-1.37068 z" />
    </g>
    <g
       id="text3693"
       style="font-style:normal;font-variant:normal;font-weight:normal;font-stretch:normal;font-size:52.71844482px;line-height:125%;font-family:Track;-inkscape-font-specification:'Track, Normal';text-align:start;letter-spacing:0px;word-spacing:0px;writing-mode:lr-tb;text-anchor:start;fill:#fafafa;fill-opacity:1;stroke:none;stroke-width:1px;stroke-linecap:butt;stroke-linejoin:miter;stroke-opacity:1"
       transform="matrix(1.9841196,0,0,2.11091,-169.94948,-73.653331)">
      <path
         id="path4156"
         d="m 175.03604,85.440094 q -0.73806,0 -1.21252,-0.474466 -0.47447,-0.474466 -0.47447,-1.212524 l -0.10544,-38.800776 q 0,-0.738058 0.52719,-1.212524 0.52718,-0.474466 1.26524,-0.474466 l 25.46301,0 q 1.31796,0 1.52883,0.632621 0.21088,0.632622 0.21088,1.423398 l 0,2.899515 q 0,1.423398 -0.36903,1.739709 -0.36903,0.31631 -1.73971,0.31631 l -19.76942,0 0,9.331165 17.55525,0 q 0.73805,0 1.21252,0.527184 0.47447,0.474466 0.47447,1.212525 l 0,3.584854 q 0,0.738058 -0.47447,1.265243 -0.47447,0.474466 -1.21252,0.474466 l -17.55525,0 0,11.756213 20.45476,0 q 1.37068,0 1.73971,0.316311 0.36903,0.31631 0.36903,1.739708 l 0,2.846796 q 0,0.790777 -0.21088,1.476117 -0.21087,0.632621 -1.52883,0.632621 l -26.14835,0 z"
         style="fill:#fafafa" />
      <path
         id="path4158"
         style="font-size:40px;fill:#fafafa"
         d="m 232.19429,84.160094 q 0,1.28 -1.28,1.28 l -2.88,0 q -0.64,0 -0.88,-0.28 -0.2,-0.32 -0.4,-0.76 l -3.64,-10.52 -9.84,4.36 -2.2,6.16 q -0.2,0.48 -0.4,0.76 -0.2,0.28 -0.92,0.28 l -2.76,0 q -0.48,0 -0.92,-0.36 -0.4,-0.36 -0.4,-0.92 0,-0.04 0.4,-1.2 0.4,-1.2 1.04,-3.12 0.68,-1.96 1.52,-4.44 0.84,-2.52 1.72,-5.16 0.92,-2.68 1.8,-5.28 0.92,-2.64 1.68,-4.8 0.76,-2.16 1.28,-3.68 0.56,-1.52 0.76,-2 0.2,-0.44 0.44,-0.72 0.24,-0.32 0.84,-0.32 l 3.52,0 q 0.6,0 0.8,0.32 0.24,0.32 0.44,0.72 l 10.24,29.2 q 0.04,0.2 0.04,0.28 0,0.08 0,0.2 z m -11,-15.6 q -0.36,-0.96 -0.6,-1.56 -0.24,-0.64 -0.32,-0.96 -0.08,-0.32 -0.2,-0.6 -0.12,-0.32 -0.2,-0.64 -0.2,-0.6 -0.44,-1.28 -0.2,-0.68 -0.52,-1.6 l -3.24,9.08 5.52,-2.44 z" />
      <path
         id="path4160"
         style="font-size:40px;fill:#fafafa"
         d="m 257.69241,75.520094 q 0,1.16 -0.24,2.32 -0.2,1.16 -0.6,2.24 -0.4,1.04 -0.96,1.96 -0.56,0.88 -1.24,1.48 -1.36,1.2 -3.24,1.76 -1.84,0.52 -4,0.52 l -3.04,0 q -2.64,0 -4.84,-1.2 -2.2,-1.24 -3.48,-3.32 -0.88,-1.28 -1.12,-2.6 -0.24,-1.24 -0.28,-1.88 0,-0.68 0,-1.36 l 0,0.08 q 0,-0.6 0.16,-1.08 0.2,-0.48 1.12,-0.48 l 2.72,0 q 0.96,0 1.2,0.96 0.12,0.4 0.12,0.6 0,0.2 0,0.68 0,0.16 0,0.44 0.04,0.24 0.08,0.64 0.32,1.48 1.52,2.44 1.24,0.96 2.8,0.96 l 3.04,0 q 1.8,0 3.16,-0.92 1.4,-0.92 1.68,-2.52 0.04,-0.2 0.04,-0.4 0.04,-0.2 0.04,-0.4 0,-0.2 0,-0.48 0.04,-0.32 -0.04,-0.64 -0.04,-0.32 -0.2,-0.64 -0.12,-0.32 -0.36,-0.56 -0.84,-0.72 -2.56,-1.12 -1.72,-0.4 -3.88,-0.92 -1.92,-0.44 -3.84,-1 -1.88,-0.56 -3.4,-1.44 -1.52,-0.92 -2.48,-2.28 -0.92,-1.36 -0.92,-3.36 l 0,-0.56 q 0,-0.64 0,-1.28 0.04,-0.68 0.24,-1.48 l -0.04,0.04 q 0.32,-1.68 1.2,-3.08 0.88,-1.4 2.16,-2.4 1.28,-1.04 2.84,-1.6 1.6,-0.6 3.32,-0.6 l 3.04,0 q 1.8,0 3.44,0.64 1.68,0.6 3.04,1.68 1.36,1.08 2.12,3.04 0.76,1.92 0.68,4.24 -0.04,0.6 -0.2,1.08 -0.16,0.48 -1.08,0.48 l -2.64,0 q -0.56,0 -0.92,-0.4 -0.32,-0.4 -0.36,-0.88 -0.08,-2.56 -1.12,-3.6 -1.04,-1.08 -2.96,-1.08 l -3.04,0 q -0.76,0 -1.48,0.28 -0.72,0.24 -1.32,0.72 -0.56,0.48 -1,1.12 -0.4,0.64 -0.56,1.4 l 0,-0.04 q -0.08,0.52 -0.12,1.32 0,0.8 0.76,1.56 0.8,0.8 1.72,1.04 l 4.6,1.28 q 1.8,0.52 3.08,0.88 1.28,0.32 2.04,0.6 0.8,0.28 1.48,0.64 0.72,0.32 1.32,0.72 1.24,0.84 2,2.28 0.8,1.44 0.8,3.48 z" />
      <path
         id="path4162"
         style="font-size:40px;fill:#fafafa"
         d="m 280.89117,53.960094 q 0.4,-0.52 1.08,-0.52 l 3.6,0 q 1.28,0 1.28,1.28 0,0.32 -0.16,0.6 -0.16,0.28 -0.32,0.48 0,0.04 -0.04,0.04 0,0 0,0.04 l -0.04,0.04 -10.28,14.68 0,13.28 q 0,0.6 -0.16,1.08 -0.16,0.48 -1.16,0.48 l -2.72,0 q -0.92,0 -1.12,-0.48 -0.16,-0.48 -0.16,-1.08 l 0,-13.36 -10.56,-15.08 q -0.12,-0.2 -0.16,-0.36 0,-0.16 0,-0.4 0,-1.24 1.24,-1.24 l 3.56,0 q 0.72,0 1.16,0.6 l 7.48,11.08 q 3.12,-4.84 5,-7.6 1.88,-2.8 2.56,-3.64 l -0.08,0.08 z" />
      <path
         id="path4164"
         d="m 297.42561,83.753104 q 0,0.632621 -0.52719,1.159806 -0.47446,0.527184 -1.21252,0.527184 l -3.58486,0 q -0.73805,0 -1.1598,-0.527184 -0.42175,-0.527185 -0.42175,-1.159806 l -0.10544,-38.800776 q 0,-0.632621 0.47447,-1.159805 0.47447,-0.527185 1.21252,-0.527185 l 3.58486,0 q 0.73806,0 1.21252,0.527185 0.52719,0.527184 0.52719,1.159805 l 0,38.800776 z"
         style="fill:#fafafa" />
      <path
         id="path4166"
         d="m 342.12344,43.265338 q 0.36903,0 0.84349,0.05272 0.52719,0 0.94893,0.210873 0.47447,0.158156 0.79078,0.632622 0.31631,0.474466 0.31631,1.317961 l 0,38.431746 q 0,1.159806 -0.5799,1.37068 -0.52719,0.158155 -1.26525,0.158155 l -3.11038,0 q -1.37068,0 -1.73971,-0.369029 -0.36903,-0.369029 -0.36903,-1.739709 l 0,-27.677183 q -2.74136,3.479417 -5.43,6.853397 -2.63592,3.373981 -5.48272,6.747961 l 0.0527,-0.105436 q -0.36903,0.579902 -0.68534,0.685339 -0.31631,0.105437 -0.89621,0.105437 l -2.05602,0 q -0.73806,0 -1.00165,-0.158155 -0.2636,-0.158155 -0.68534,-0.68534 l -10.80728,-13.443203 0,27.677183 q 0,1.37068 -0.36903,1.739709 -0.36903,0.369029 -1.73971,0.369029 l -3.11039,0 q -0.73806,0.05272 -1.26524,-0.158155 -0.47447,-0.210874 -0.47447,-1.265243 l -0.10544,-38.589902 q 0,-0.790776 0.31631,-1.212524 0.36903,-0.474466 0.8435,-0.68534 0.52718,-0.210873 1.05437,-0.210873 0.52718,-0.05272 0.84349,-0.05272 l 1.89787,0 q 0.73806,0 1.21252,0.158155 0.52719,0.158156 1.00165,0.790777 l 13.44321,16.869902 13.49592,-17.028057 q 0.63262,-0.790777 2.05602,-0.790777 l 2.05602,0 z"
         style="fill:#fafafa" />
      <path
         id="path4168"
         d="m 368.44806,42.579998 q 3.21583,0 6.00991,1.054369 2.84679,1.054369 5.06097,2.952233 2.21417,1.897864 3.74301,4.533786 1.52883,2.583204 2.16145,5.640874 0,0.05272 -0.0527,0.263592 0,0.210874 0,0.263592 -0.15815,0.527185 -0.52718,1.054369 -0.36903,0.474466 -1.10709,0.474466 l -3.53213,0 q -0.68534,0 -1.05437,-0.31631 -0.31631,-0.316311 -0.57991,-0.843495 -0.42174,-1.212525 -0.79077,-2.214175 -0.36903,-1.001651 -1.05437,-1.897864 -1.4234,-1.950583 -3.58486,-3.004951 -2.16145,-1.107088 -4.69194,-1.107088 -2.10874,0 -4.0066,0.843495 -1.84514,0.790777 -3.26854,2.214175 -1.37068,1.37068 -2.21418,3.268544 -0.79077,1.897864 -0.79077,4.006601 l 0,9.17301 q 0,2.161456 0.79077,4.05932 0.8435,1.845146 2.21418,3.268544 1.4234,1.370679 3.26854,2.214174 1.89786,0.790777 4.0066,0.790777 2.53049,0 4.69194,-1.107087 2.16146,-1.107088 3.6903,-3.110389 0.79077,-1.054369 1.1598,-2.108737 0.42175,-1.107088 0.73806,-2.425049 l -0.0527,0.105437 q 0.21087,-1.423398 1.63427,-1.423398 l 3.53214,0 q 0.73806,0 1.21252,0.527184 0.47447,0.527185 0.47447,1.159806 0,0.790777 -0.21087,1.68699 -0.21088,0.843496 -0.47447,1.581554 -0.89621,2.530485 -2.5832,4.691941 -1.63428,2.161457 -3.84845,3.795728 -2.16146,1.581554 -4.74466,2.477767 -2.53049,0.896214 -5.21913,0.896214 -3.53213,0 -6.64252,-1.317961 -3.11039,-1.37068 -5.48272,-3.690291 -2.31961,-2.319612 -3.69029,-5.43 -1.31796,-3.110388 -1.31796,-6.642524 l 0,-9.17301 q 0,-3.532135 1.31796,-6.642524 1.37068,-3.163106 3.69029,-5.482718 2.37233,-2.319612 5.48272,-3.690291 3.11039,-1.37068 6.64252,-1.37068 z"
         style="fill:#fafafa" />
    </g>
  </g>
</svg>
